<svg xmlns="http://www.w3.org/2000/svg" viewBox="0 0 24 24" fill="none">
  <path d="M3 7v10a2 2 0 0 0 2 2h14a2 2 0 0 0 2-2V9a2 2 0 0 0-2-2h-8l-2-2H5a2 2 0 0 0-2 2z" fill="#8BC34A" opacity="0.3"/>
  <path d="M3 7v10a2 2 0 0 0 2 2h14a2 2 0 0 0 2-2V9a2 2 0 0 0-2-2h-8l-2-2H5a2 2 0 0 0-2 2z" stroke="#8BC34A" stroke-width="1.5" stroke-linecap="round" stroke-linejoin="round"/>
  <rect x="10" y="11" width="4" height="5" stroke="#8BC34A" stroke-width="0.8" fill="none"/>
  <line x1="11.3" y1="11" x2="11.3" y2="16" stroke="#8BC34A" stroke-width="0.8"/>
  <line x1="12.6" y1="11" x2="12.6" y2="16" stroke="#8BC34A" stroke-width="0.8"/>
</svg>
