<svg xmlns="http://www.w3.org/2000/svg" viewBox="0 0 24 24" fill="none">
  <path d="M3 7v10a2 2 0 0 0 2 2h14a2 2 0 0 0 2-2V9a2 2 0 0 0-2-2h-8l-2-2H5a2 2 0 0 0-2 2z" fill="#61DAFB" opacity="0.3"/>
  <path d="M3 7v10a2 2 0 0 0 2 2h14a2 2 0 0 0 2-2V9a2 2 0 0 0-2-2h-8l-2-2H5a2 2 0 0 0-2 2z" stroke="#61DAFB" stroke-width="1.5" stroke-linecap="round" stroke-linejoin="round"/>
  <rect x="10" y="11" width="7" height="5" rx="0.5" stroke="#61DAFB" stroke-width="0.8" fill="none"/>
  <path d="M11.5 13h4M13.5 11.5v4" stroke="#61DAFB" stroke-width="0.8"/>
</svg>
