<svg xmlns="http://www.w3.org/2000/svg" viewBox="0 0 24 24" fill="none">
  <path d="M3 7v10a2 2 0 0 0 2 2h14a2 2 0 0 0 2-2V9a2 2 0 0 0-2-2h-8l-2-2H5a2 2 0 0 0-2 2z" fill="#4EC9B0" opacity="0.3"/>
  <path d="M3 7v10a2 2 0 0 0 2 2h14a2 2 0 0 0 2-2V9a2 2 0 0 0-2-2h-8l-2-2H5a2 2 0 0 0-2 2z" stroke="#4EC9B0" stroke-width="1.5" stroke-linecap="round" stroke-linejoin="round"/>
  <text x="12" y="15" font-family="monospace" font-size="6" font-weight="bold" fill="#4EC9B0" text-anchor="middle">src</text>
</svg>
