<svg xmlns="http://www.w3.org/2000/svg" viewBox="0 0 24 24" fill="none">
  <path d="M13 2H6a2 2 0 0 0-2 2v16a2 2 0 0 0 2 2h12a2 2 0 0 0 2-2V9z" fill="#FFA657" opacity="0.2"/>
  <path d="M13 2v7h7" fill="#FFA657" opacity="0.1"/>
  <path d="M13 2H6a2 2 0 0 0-2 2v16a2 2 0 0 0 2 2h12a2 2 0 0 0 2-2V9l-7-7z" stroke="#FFA657" stroke-width="1.5" stroke-linecap="round" stroke-linejoin="round"/>
  <path d="M8 13.5c0 1 .5 1.5 1.5 1.5s1.5-.5 1.5-1.5v-2c0-.5-.2-1-1-1" stroke="#FFA657" stroke-width="1" fill="none"/>
  <path d="M13 12.5c0 1 .5 1.5 1.5 1.5s1.5-1 1.5-2" stroke="#FFA657" stroke-width="1" fill="none"/>
</svg>
