<svg xmlns="http://www.w3.org/2000/svg" viewBox="0 0 24 24" fill="none">
  <path d="M13 2H6a2 2 0 0 0-2 2v16a2 2 0 0 0 2 2h12a2 2 0 0 0 2-2V9z" fill="#BB9AF7" opacity="0.3"/>
  <path d="M13 2v7h7" fill="#BB9AF7" opacity="0.15"/>
  <path d="M13 2H6a2 2 0 0 0-2 2v16a2 2 0 0 0 2 2h12a2 2 0 0 0 2-2V9l-7-7z" stroke="#BB9AF7" stroke-width="1.5" stroke-linecap="round" stroke-linejoin="round"/>
  <path d="M9 11l3 2-3 2M15 11v4" stroke="#BB9AF7" stroke-width="1.2" stroke-linecap="round"/>
  <circle cx="12" cy="16" r="1" fill="#BB9AF7"/>
  <text x="12" y="18.5" font-family="Arial, sans-serif" font-size="4" font-weight="bold" fill="#BB9AF7" text-anchor="middle">MAIN</text>
</svg>
