<svg xmlns="http://www.w3.org/2000/svg" viewBox="0 0 24 24" fill="none">
  <path d="M13 2H6a2 2 0 0 0-2 2v16a2 2 0 0 0 2 2h12a2 2 0 0 0 2-2V9z" fill="#519ABA" opacity="0.2"/>
  <path d="M13 2v7h7" fill="#519ABA" opacity="0.1"/>
  <path d="M13 2H6a2 2 0 0 0-2 2v16a2 2 0 0 0 2 2h12a2 2 0 0 0 2-2V9l-7-7z" stroke="#519ABA" stroke-width="1.5" stroke-linecap="round" stroke-linejoin="round"/>
  <path d="M8 16V11l2 2 2-2v5M14 11l2 5 2-5" stroke="#519ABA" stroke-width="1" fill="none" stroke-linecap="round" stroke-linejoin="round"/>
</svg>
