<svg xmlns="http://www.w3.org/2000/svg" viewBox="0 0 24 24" fill="none">
  <path d="M13 2H6a2 2 0 0 0-2 2v16a2 2 0 0 0 2 2h12a2 2 0 0 0 2-2V9z" fill="#CB3837" opacity="0.2"/>
  <path d="M13 2v7h7" fill="#CB3837" opacity="0.1"/>
  <path d="M13 2H6a2 2 0 0 0-2 2v16a2 2 0 0 0 2 2h12a2 2 0 0 0 2-2V9l-7-7z" stroke="#CB3837" stroke-width="1.5" stroke-linecap="round" stroke-linejoin="round"/>
  <rect x="8" y="11" width="8" height="5" stroke="#CB3837" stroke-width="0.8" fill="none"/>
  <line x1="10" y1="11" x2="10" y2="16" stroke="#CB3837" stroke-width="0.8"/>
  <line x1="12" y1="11" x2="12" y2="16" stroke="#CB3837" stroke-width="0.8"/>
  <line x1="14" y1="11" x2="14" y2="16" stroke="#CB3837" stroke-width="0.8"/>
</svg>
