<svg xmlns="http://www.w3.org/2000/svg" viewBox="0 0 24 24" fill="none">
  <path d="M13 2H6a2 2 0 0 0-2 2v16a2 2 0 0 0 2 2h12a2 2 0 0 0 2-2V9z" fill="#3776AB" opacity="0.2"/>
  <path d="M13 2v7h7" fill="#FFD43B" opacity="0.1"/>
  <path d="M13 2H6a2 2 0 0 0-2 2v16a2 2 0 0 0 2 2h12a2 2 0 0 0 2-2V9l-7-7z" stroke="#3776AB" stroke-width="1.5" stroke-linecap="round" stroke-linejoin="round"/>
  <text x="12" y="17" font-family="Arial, sans-serif" font-size="8" font-weight="bold" fill="#3776AB" text-anchor="middle">PY</text>
</svg>
