<svg xmlns="http://www.w3.org/2000/svg" viewBox="0 0 24 24" fill="none">
  <path d="M13 2H6a2 2 0 0 0-2 2v16a2 2 0 0 0 2 2h12a2 2 0 0 0 2-2V9z" fill="#61DAFB" opacity="0.2"/>
  <path d="M13 2v7h7" fill="#61DAFB" opacity="0.1"/>
  <path d="M13 2H6a2 2 0 0 0-2 2v16a2 2 0 0 0 2 2h12a2 2 0 0 0 2-2V9l-7-7z" stroke="#61DAFB" stroke-width="1.5" stroke-linecap="round" stroke-linejoin="round"/>
  <ellipse cx="12" cy="14" rx="4" ry="1.5" stroke="#61DAFB" stroke-width="0.8" fill="none"/>
  <ellipse cx="12" cy="14" rx="4" ry="1.5" stroke="#61DAFB" stroke-width="0.8" fill="none" transform="rotate(60 12 14)"/>
  <ellipse cx="12" cy="14" rx="4" ry="1.5" stroke="#61DAFB" stroke-width="0.8" fill="none" transform="rotate(-60 12 14)"/>
  <circle cx="12" cy="14" r="0.8" fill="#61DAFB"/>
</svg>
